<svg width="22" height="22" viewBox="0 0 22 22" fill="none" xmlns="http://www.w3.org/2000/svg">
<g id="Frame" clip-path="url(#clip0_2172_449)">
<path id="Vector" d="M11.693 13.0021L16.94 7.75507C17.0683 7.6267 17.2424 7.55459 17.424 7.55459C17.6055 7.55459 17.7796 7.6267 17.908 7.75507C18.0363 7.88343 18.1084 8.05753 18.1084 8.23907C18.1084 8.42061 18.0363 8.5947 17.908 8.72307L11.561 15.0701C11.4133 15.2126 11.2161 15.2922 11.011 15.2922C10.8058 15.2922 10.6086 15.2126 10.461 15.0701L4.09196 8.73407C4.0284 8.67051 3.97798 8.59505 3.94358 8.51201C3.90918 8.42896 3.89148 8.33996 3.89148 8.25007C3.89148 8.16018 3.90918 8.07118 3.94358 7.98813C3.97798 7.90509 4.0284 7.82963 4.09196 7.76607C4.15552 7.70251 4.23097 7.65209 4.31402 7.61769C4.39706 7.58329 4.48607 7.56559 4.57596 7.56559C4.66584 7.56559 4.75485 7.58329 4.83789 7.61769C4.92094 7.65209 4.9964 7.70251 5.05996 7.76607L10.307 13.0131V2.38707C10.2946 2.28949 10.3031 2.19039 10.332 2.09637C10.3609 2.00234 10.4095 1.91555 10.4745 1.84175C10.5396 1.76795 10.6196 1.70885 10.7092 1.66836C10.7989 1.62787 10.8961 1.60693 10.9945 1.60693C11.0928 1.60693 11.1901 1.62787 11.2797 1.66836C11.3693 1.70885 11.4493 1.76795 11.5144 1.84175C11.5794 1.91555 11.628 2.00234 11.6569 2.09637C11.6858 2.19039 11.6943 2.28949 11.682 2.38707L11.693 13.0021ZM3.29996 19.3931C3.13259 19.3719 2.97871 19.2903 2.86717 19.1638C2.75563 19.0372 2.69409 18.8743 2.69409 18.7056C2.69409 18.5369 2.75563 18.374 2.86717 18.2474C2.97871 18.1208 3.13259 18.0393 3.29996 18.0181H18.7C18.8673 18.0393 19.0212 18.1208 19.1327 18.2474C19.2443 18.374 19.3058 18.5369 19.3058 18.7056C19.3058 18.8743 19.2443 19.0372 19.1327 19.1638C19.0212 19.2903 18.8673 19.3719 18.7 19.3931H3.29996Z" fill="#383838"/>
<circle id="Ellipse 7" cx="17.5" cy="17.2354" r="3.5" fill="#FF5555"/>
</g>
<defs>
<clipPath id="clip0_2172_449">
<rect width="22" height="22" fill="white"/>
</clipPath>
</defs>
</svg>
