<svg width="28" height="28" viewBox="0 0 28 28" fill="none" xmlns="http://www.w3.org/2000/svg">
<g id="Frame" clip-path="url(#clip0_2172_598)">
<path id="Vector" d="M22.2496 10.5739V4.72236C22.2496 3.59033 21.3336 2.67432 20.2016 2.67432H7.90781C6.77578 2.67432 5.85977 3.59307 5.85977 4.72236V10.5739L14.0547 16.4009L22.2496 10.5739ZM9.0125 5.19541H19.0996C19.4469 5.19541 19.7313 5.47705 19.7313 5.82705C19.7313 6.17432 19.4496 6.45869 19.0996 6.45869H9.0125C8.66523 6.45869 8.38086 6.17705 8.38086 5.82705C8.38086 5.47705 8.6625 5.19541 9.0125 5.19541ZM8.38086 8.34814C8.38086 8.00088 8.6625 7.7165 9.0125 7.7165H15.318C15.6652 7.7165 15.9496 7.99814 15.9496 8.34814C15.9496 8.69541 15.668 8.97978 15.318 8.97978H9.0125C8.6625 8.97978 8.38086 8.69541 8.38086 8.34814ZM25.1973 10.0271L15.143 17.1747L25.1973 24.3224C25.3258 24.0681 25.4051 23.7837 25.4051 23.4802V10.8692C25.4023 10.5657 25.323 10.2813 25.1973 10.0271ZM2.70703 10.8692V23.4774C2.70703 24.522 3.55469 25.3696 4.59922 25.3696H23.5129C23.7836 25.3696 24.0379 25.3122 24.2703 25.2083L2.91484 10.0243C2.78633 10.2813 2.70703 10.5657 2.70703 10.8692Z" fill="#016FFD"/>
</g>
<defs>
<clipPath id="clip0_2172_598">
<rect width="28" height="28" fill="white"/>
</clipPath>
</defs>
</svg>
