<svg width="18" height="18" viewBox="0 0 18 18" fill="none" xmlns="http://www.w3.org/2000/svg">
<g id="Frame" clip-path="url(#clip0_2172_440)">
<path id="Vector" d="M7.52234 13.9878C5.85701 13.9878 4.19168 13.3536 2.92399 12.086C0.388617 9.55056 0.388617 5.42485 2.92399 2.88939C5.45913 0.354401 9.58532 0.353455 12.1209 2.88939C14.6563 5.42485 14.6563 9.55056 12.1209 12.086C10.8532 13.3536 9.18768 13.9878 7.52234 13.9878ZM7.52234 2.34109C6.2038 2.34109 4.88501 2.84303 3.88132 3.84666C1.8737 5.85417 1.8737 9.12124 3.88132 11.1287C5.88918 13.1358 9.15574 13.1367 11.1636 11.1287C13.1712 9.12124 13.1712 5.85417 11.1636 3.84666C10.1597 2.84303 8.84113 2.34109 7.52234 2.34109Z" fill="#626262"/>
<path id="Vector_2" d="M16.3382 16.9878C16.1632 16.9878 15.988 16.9211 15.8546 16.7875L11.2229 12.1556C10.9556 11.8884 10.9556 11.4555 11.2229 11.1882C11.4902 10.921 11.9231 10.921 12.1904 11.1882L16.822 15.8198C17.0893 16.0871 17.0893 16.52 16.822 16.7872C16.7585 16.8509 16.6831 16.9013 16.6001 16.9357C16.5171 16.9702 16.4281 16.9878 16.3382 16.9878Z" fill="#626262"/>
</g>
<defs>
<clipPath id="clip0_2172_440">
<rect width="18" height="18" fill="white"/>
</clipPath>
</defs>
</svg>
